# xmcd
#
# Track frame offsets: 
#        150
#        15334
#        34710
#        49555
#        67830
#        94287
#        114737
#        135967
#        158412
#        181052
#        208912
#        230292
#        249575
#        273505
#
# Disc length: 3873 seconds
#
# Revision: 4
# Processed by: cddbd v1.5.2PL0 Copyright (c) Steve Scherf et al.
# Submitted via: ExactAudioCopy v0.99pb4
#
DISCID=ac0f1f0e
DTITLE=Mellow Groove - Groove2 Mellow Groove
DYEAR=1995
DGENRE=R&B
TTITLE0=What You Won't Do For Love
TTITLE1=Status Symbol
TTITLE2=Be Thankful For What You Got
TTITLE3=Let It Flow
TTITLE4=Rub Me Down
TTITLE5=Gotta Get It
TTITLE6=Save The Children
TTITLE7=Deeper (Surgery Mix)
TTITLE8=Have You Seen Her
TTITLE9=Candlelight Lover
TTITLE10=My Destiny (Street Mix)
TTITLE11=Give Me Your Love
TTITLE12=Desire
TTITLE13=Drift Away
EXTD=YEAR: 1995
EXTT0=
EXTT1=
EXTT2=
EXTT3=
EXTT4=
EXTT5=
EXTT6=
EXTT7=
EXTT8=
EXTT9=
EXTT10=
EXTT11=
EXTT12=
EXTT13=
PLAYORDER=
